#!OML:ASF E:\acrobat2\Project_11_07_03\Capture day 1\Session 1\Acrobat.ASF
:FULLY-SPECIFIED
:DEGREES
674
root -3.9636 2.0301 -16.8347 -297.706 -39.9183 213.87
lowerback 21.2309 4.95865 -17.5462
upperback 17.5333 1.59514 1.23296
thorax 6.99947 -2.24234 10.3136
lowerneck 3.39454 -0.958462 -1.84665
upperneck 28.5644 -5.85417 8.30628
head 8.62836 -3.48939 2.61744
rclavicle -4.13472e-014 -1.03368e-013
rhumerus -3.70241 -6.69344 -67.7379
rradius 29.522
rwrist -21.1629
rhand -20.2088 -4.09715
rfingers 7.12502
rthumb 6.13823 -33.9882
lclavicle -4.13472e-014 -1.03368e-013
lhumerus -14.7684 -7.5065 89.7488
lradius 69.6386
lwrist -9.19808
lhand -32.567 -6.1813
lfingers 7.12502
lthumb -5.79619 23.7194
rfemur -76.5422 -41.3184 17.8036
rtibia 117.465
rfoot 10.2277 7.12114
rtoes -14.1471
lfemur -78.7674 11.4939 -23.1404
ltibia 127.841
lfoot 6.55675 -3.25357
ltoes 21.9933
675
root -3.95368 2.01831 -16.871 -297.371 -40.2725 213.78
lowerback 21.0701 4.91432 -16.8551
upperback 17.5615 1.69728 1.26231
thorax 7.06135 -2.12254 9.97923
lowerneck 3.4074 -1.04146 -1.84154
upperneck 28.6576 -6.08471 8.62603
head 8.68411 -3.57705 2.71226
rclavicle 6.04305e-014 -7.95139e-014
rhumerus -3.29033 -6.84405 -67.8268
rradius 29.0506
rwrist -20.8975
rhand -20.4134 -3.56294
rfingers 7.12502
rthumb 5.94075 -33.4597
lclavicle 6.04305e-014 -7.95139e-014
lhumerus -14.4384 -8.33009 89.4382
lradius 69.2475
lwrist -9.19216
lhand -32.5251 -6.12973
lfingers 7.12502
lthumb -5.75574 23.7721
rfemur -75.0387 -40.5186 17.9199
rtibia 116.088
rfoot 10.7941 6.29604
rtoes -12.8264
lfemur -78.7614 11.7922 -22.4613
ltibia 127.252
lfoot 6.84412 -3.21691
ltoes 20.71
676
root -3.9467 2.00863 -16.9126 -296.9 -40.9425 213.806
lowerback 20.6986 4.88187 -16.4661
upperback 17.5402 1.82092 1.1759
thorax 7.17774 -2.00408 9.67864
lowerneck 3.42062 -1.1311 -1.8405
upperneck 28.7116 -6.31893 8.95317
head 8.72739 -3.66483 2.81029
rclavicle 9.54166e-015 -2.22639e-014
rhumerus -2.90322 -6.96014 -67.9026
rradius 28.6792
rwrist -20.6884
rhand -20.5978 -2.95006
rfingers 7.12502
rthumb 5.76263 -32.8517
lclavicle 9.54166e-015 -2.22639e-014
lhumerus -14.0699 -9.19499 89.0618
lradius 68.9021
lwrist -9.07133
lhand -32.3639 -6.06217
lfingers 7.12502
lthumb -5.60008 23.8438
rfemur -74.0786 -39.6857 17.9134
rtibia 114.82
rfoot 11.4352 5.53077
rtoes -11.8155
lfemur -78.9835 11.9641 -22.246
ltibia 126.677
lfoot 6.95383 -3.06826
ltoes 19.7799
677
root -3.94307 1.99922 -16.9579 -296.455 -41.8057 213.96
lowerback 20.2942 4.85517 -16.2588
upperback 17.5062 1.9305 1.02145
thorax 7.30952 -1.90495 9.40201
lowerneck 3.43072 -1.22166 -1.8605
upperneck 28.7323 -6.53657 9.25104
head 8.75852 -3.74682 2.90315
rclavicle 0 4.13472e-014
rhumerus -2.5139 -7.00213 -67.9429
rradius 28.4105
rwrist -20.565
rhand -20.6999 -2.305
rfingers 7.12502
rthumb 5.66406 -32.2093
lclavicle 0 4.13472e-014
lhumerus -13.6493 -10.0194 88.6469
lradius 68.5816
lwrist -8.88914
lhand -32.1311 -6.00696
lfingers 7.12502
lthumb -5.37536 23.9049
rfemur -73.3297 -38.8998 17.7051
rtibia 113.639
rfoot 12.126 4.84338
rtoes -10.7048
lfemur -79.2441 11.9984 -22.3414
ltibia 126.121
lfoot 6.90436 -2.85491
ltoes 19.1073
678
root -3.94263 1.99041 -17.0066 -295.949 -42.8859 214.179
lowerback 19.8059 4.84825 -16.2318
upperback 17.1207 2.08063 0.596836
thorax 7.76771 -1.81774 9.3034
lowerneck 3.44834 -1.31512 -1.89425
upperneck 28.7186 -6.75105 9.55305
head 8.77696 -3.82756 3.0003
rclavicle 3.81667e-014 -2.22639e-014
rhumerus -2.17118 -7.01704 -67.9534
rradius 28.2716
rwrist -20.5412
rhand -20.6908 -1.68801
rfingers 7.12502
rthumb 5.67288 -31.5921
lclavicle 3.81667e-014 -2.22639e-014
lhumerus -13.1892 -10.8153 88.1882
lradius 68.3015
lwrist -8.61633
lhand -31.8252 -5.98111
lfingers 7.12502
lthumb -5.07999 23.938
rfemur -72.9218 -38.1053 17.3614
rtibia 112.567
rfoot 12.8742 4.2351
rtoes -9.73182
lfemur -79.6189 11.9842 -22.7634
ltibia 125.579
lfoot 6.70445 -2.56677
ltoes 18.5744
679
root -3.97464 1.99333 -17.0888 -295.396 -44.1664 214.441
lowerback 19.2335 4.88666 -16.4056
upperback 17.0322 2.26011 0.305138
thorax 7.91321 -1.70075 9.04841
lowerneck 3.49254 -1.41582 -1.9208
upperneck 28.6676 -6.97308 9.86808
head 8.77899 -3.91114 3.10063
rclavicle -2.22639e-014 -5.56597e-014
rhumerus -1.93756 -7.07903 -67.9474
rradius 28.2929
rwrist -20.5754
rhand -20.579 -1.14994
rfingers 7.12502
rthumb 5.78079 -31.0511
lclavicle -2.22639e-014 -5.56597e-014
lhumerus -12.7329 -11.6229 87.6885
lradius 68.1282
lwrist -8.18865
lhand -31.4392 -5.91959
lfingers 7.12502
lthumb -4.70723 24.0081
rfemur -73.0914 -37.3109 16.866
rtibia 111.897
rfoot 13.6648 3.70625
rtoes -8.67121
lfemur -80.3842 12.0677 -23.4475
ltibia 125.362
lfoot 6.4158 -2.27525
ltoes 17.9465
680
root -3.97555 1.98704 -17.1464 -294.868 -45.4041 214.696
lowerback 18.7272 4.94045 -16.5319
upperback 16.9409 2.45099 0.0173209
thorax 8.01887 -1.57327 8.77191
lowerneck 3.55771 -1.52452 -1.91143
upperneck 28.5653 -7.18392 10.1417
head 8.75657 -3.98815 3.18135
rclavicle 9.54166e-015 -3.18055e-015
rhumerus -1.7513 -7.12719 -67.8915
rradius 28.4196
rwrist -20.7001
rhand -20.4102 -0.73656
rfingers 7.12502
rthumb 5.94384 -30.6332
lclavicle 9.54166e-015 -3.18055e-015
lhumerus -12.3238 -12.4923 87.1612
lradius 68.1333
lwrist -7.66584
lhand -31.074 -5.59109
lfingers 7.12502
lthumb -4.35459 24.3441
rfemur -73.0011 -36.4737 16.4031
rtibia 110.992
rfoot 14.3377 3.20914
rtoes -7.47434
lfemur -80.8129 12.1325 -24.13
ltibia 124.853
lfoot 6.06727 -1.96586
ltoes 16.9722
681
root -3.97671 1.98204 -17.2075 -294.328 -46.6943 214.943
lowerback 18.2409 5.00862 -16.7466
upperback 16.8392 2.64399 -0.274114
thorax 8.1079 -1.45389 8.54258
lowerneck 3.59438 -1.62311 -1.89824
upperneck 28.4344 -7.3427 10.3321
head 8.72226 -4.04124 3.2356
rclavicle -2.22639e-014 -1.01778e-013
rhumerus -1.53434 -7.15846 -67.8067
rradius 28.6001
rwrist -20.8084
rhand -20.2294 -0.426983
rfingers 7.12502
rthumb 6.11839 -30.3186
lclavicle -2.22639e-014 -1.01778e-013
lhumerus -11.9661 -13.2683 86.6255
lradius 68.2532
lwrist -7.13929
lhand -30.7827 -5.32822
lfingers 7.12502
lthumb -4.07326 24.6126
rfemur -73.0525 -35.6214 15.9102
rtibia 110.181
rfoot 14.8939 2.87436
rtoes -6.70328
lfemur -81.239 12.2492 -24.8929
ltibia 124.364
lfoot 5.65629 -1.68352
ltoes 15.7019
682
root -3.97794 1.97777 -17.2707 -293.81 -47.9862 215.177
lowerback 17.8132 5.06497 -17.0254
upperback 16.7398 2.79836 -0.543697
thorax 8.18462 -1.36526 8.37942
lowerneck 3.54838 -1.68603 -1.94327
upperneck 28.3151 -7.41008 10.4283
head 8.69752 -4.05472 3.27238
rclavicle -2.8625e-014 8.26944e-014
rhumerus -1.20473 -7.11714 -67.6984
rradius 28.7851
rwrist -20.8484
rhand -20.0757 -0.195721
rfingers 7.12502
rthumb 6.26675 -30.083
lclavicle -2.8625e-014 8.26944e-014
lhumerus -11.6749 -13.8528 86.0895
lradius 68.5
lwrist -6.60983
lhand -30.5359 -5.17301
lfingers 7.12502
lthumb -3.83496 24.7722
rfemur -73.1792 -34.7814 15.4044
rtibia 109.429
rfoot 15.3496 2.67629
rtoes -6.22714
lfemur -81.6454 12.4055 -25.6605
ltibia 123.894
lfoot 5.28908 -1.44566
ltoes 14.1522
683
root -3.9794 1.9738 -17.3347 -293.379 -49.2225 215.433
lowerback 17.4733 5.08893 -17.3149
upperback 16.6668 2.88652 -0.769866
thorax 8.26724 -1.32172 8.27862
lowerneck 3.38753 -1.69922 -2.07721
upperneck 28.2316 -7.37076 10.4419
head 8.69643 -4.02142 3.30175
rclavicle 4.45278e-014 -1.90833e-014
rhumerus -0.730293 -6.8801 -67.5037
rradius 28.9638
rwrist -20.9019
rhand -19.9879 -0.0481687
rfingers 7.12502
rthumb 6.35151 -29.9329
lclavicle 4.45278e-014 -1.90833e-014
lhumerus -11.4151 -14.1861 85.5661
lradius 68.7882
lwrist -6.11532
lhand -30.344 -5.31392
lfingers 7.12502
lthumb -3.64963 24.6346
rfemur -73.2868 -34.0092 14.9068
rtibia 108.752
rfoot 15.6573 2.63404
rtoes -6.02425
lfemur -81.9844 12.5579 -26.3639
ltibia 123.465
lfoot 4.95062 -1.28036
ltoes 12.4622
684
root -3.98179 1.97031 -17.3987 -293.026 -50.4138 215.723
lowerback 17.1946 5.07458 -17.6185
upperback 16.6175 2.90764 -0.955748
thorax 8.36624 -1.3228 8.23819
lowerneck 3.12002 -1.66293 -2.29709
upperneck 28.1959 -7.23187 10.3821
head 8.72268 -3.94547 3.32631
rclavicle 5.08889e-014 -3.81667e-014
rhumerus -0.123846 -6.47154 -67.2104
rradius 29.139
rwrist -20.9264
rhand -19.9617 0.0571594
rfingers 7.12502
rthumb 6.3768 -29.8269
lclavicle 5.08889e-014 -3.81667e-014
lhumerus -11.1406 -14.2684 85.0734
lradius 69.0029
lwrist -5.64012
lhand -30.2133 -5.8961
lfingers 7.12502
lthumb -3.52346 24.0545
rfemur -73.4135 -33.3173 14.4317
rtibia 108.165
rfoot 15.8264 2.74014
rtoes -6.23038
lfemur -82.2815 12.6666 -27.0433
ltibia 123.059
lfoot 4.61808 -1.1155
ltoes 10.8362
